# xmcd
#
# Track frame offsets:
#	150
#	12175
#	28100
#
# Disc length: 566 seconds
#
# Revision: 0
# Processed by: cddbd v1.5.2PL0 Copyright (c) Steve Scherf et al.
# Submitted via: audiograbber 1.82.01
#
DISCID=19023403
DTITLE=Tom Astor - Hallo, Guten Morgen Deutschland
DYEAR=1990
DGENRE=
TTITLE0=Hallo, Guten Morgen Deutschland
TTITLE1=Schreib mir mal aus Mexico
TTITLE2=Hey Darling
EXTD=
EXTT0=
EXTT1=
EXTT2=
PLAYORDER=
